<mxfile host="Electron" agent="Mozilla/5.0 (Windows NT 10.0; Win64; x64) AppleWebKit/537.36 (KHTML, like Gecko) draw.io/24.7.17 Chrome/128.0.6613.36 Electron/32.0.1 Safari/537.36" version="24.7.17">
  <diagram name="Страница — 1" id="CPp_jiu-BLnzEKdEbY_K">
    <mxGraphModel dx="472" dy="835" grid="1" gridSize="10" guides="1" tooltips="1" connect="1" arrows="1" fold="1" page="1" pageScale="1" pageWidth="827" pageHeight="1169" math="0" shadow="0">
      <root>
        <mxCell id="0" />
        <mxCell id="1" parent="0" />
        <mxCell id="LefdrT6UlM4HtIoz6M8Q-3" style="edgeStyle=orthogonalEdgeStyle;rounded=0;orthogonalLoop=1;jettySize=auto;html=1;exitX=0.5;exitY=1;exitDx=0;exitDy=0;entryX=0.5;entryY=0;entryDx=0;entryDy=0;" edge="1" parent="1" source="LefdrT6UlM4HtIoz6M8Q-1">
          <mxGeometry relative="1" as="geometry">
            <mxPoint x="240" y="150" as="targetPoint" />
          </mxGeometry>
        </mxCell>
        <mxCell id="LefdrT6UlM4HtIoz6M8Q-1" value="Начало" style="ellipse;whiteSpace=wrap;html=1;" vertex="1" parent="1">
          <mxGeometry x="180" y="30" width="120" height="80" as="geometry" />
        </mxCell>
        <mxCell id="LefdrT6UlM4HtIoz6M8Q-4" value="" style="endArrow=none;dashed=1;html=1;dashPattern=1 3;strokeWidth=2;rounded=0;" edge="1" parent="1">
          <mxGeometry width="50" height="50" relative="1" as="geometry">
            <mxPoint x="330" y="130" as="sourcePoint" />
            <mxPoint x="240" y="130" as="targetPoint" />
          </mxGeometry>
        </mxCell>
        <mxCell id="LefdrT6UlM4HtIoz6M8Q-5" value="&lt;div&gt;#include &amp;lt;iostream&amp;gt;&lt;/div&gt;&lt;div&gt;#include &amp;lt;cmath&amp;gt;&lt;/div&gt;&lt;div&gt;using namespace std;&lt;/div&gt;&lt;div&gt;int main()&lt;/div&gt;&lt;div&gt;{&lt;/div&gt;&lt;div&gt;&lt;span style=&quot;white-space-collapse: collapse;&quot;&gt;&lt;span style=&quot;white-space-collapse: preserve;&quot;&gt;&#x9;&lt;/span&gt;setlocale(LC_ALL, &quot;Russian&quot;);&lt;/span&gt;&lt;/div&gt;&lt;div&gt;&lt;span style=&quot;white-space-collapse: collapse;&quot;&gt;&lt;span style=&quot;white-space-collapse: preserve;&quot;&gt;&#x9;&lt;/span&gt;float n, a, max;&lt;/span&gt;&lt;/div&gt;" style="strokeWidth=2;html=1;shape=mxgraph.flowchart.annotation_1;align=left;pointerEvents=1;" vertex="1" parent="1">
          <mxGeometry x="330" y="70" width="50" height="120" as="geometry" />
        </mxCell>
        <mxCell id="LefdrT6UlM4HtIoz6M8Q-20" style="edgeStyle=orthogonalEdgeStyle;rounded=0;orthogonalLoop=1;jettySize=auto;html=1;exitX=0.5;exitY=1;exitDx=0;exitDy=0;entryX=0;entryY=0.5;entryDx=0;entryDy=0;" edge="1" parent="1" source="LefdrT6UlM4HtIoz6M8Q-14">
          <mxGeometry relative="1" as="geometry">
            <mxPoint x="180" y="490" as="targetPoint" />
            <Array as="points">
              <mxPoint x="140" y="780" />
              <mxPoint x="40" y="780" />
              <mxPoint x="40" y="490" />
            </Array>
          </mxGeometry>
        </mxCell>
        <mxCell id="LefdrT6UlM4HtIoz6M8Q-26" style="edgeStyle=orthogonalEdgeStyle;rounded=0;orthogonalLoop=1;jettySize=auto;html=1;exitX=0.5;exitY=1;exitDx=0;exitDy=0;entryX=0.5;entryY=0;entryDx=0;entryDy=0;" edge="1" parent="1" target="LefdrT6UlM4HtIoz6M8Q-25">
          <mxGeometry relative="1" as="geometry">
            <mxPoint x="225" y="1330" as="sourcePoint" />
          </mxGeometry>
        </mxCell>
        <mxCell id="LefdrT6UlM4HtIoz6M8Q-25" value="Конец" style="ellipse;whiteSpace=wrap;html=1;" vertex="1" parent="1">
          <mxGeometry x="165" y="1380" width="120" height="80" as="geometry" />
        </mxCell>
        <mxCell id="LefdrT6UlM4HtIoz6M8Q-27" value="" style="endArrow=none;dashed=1;html=1;dashPattern=1 3;strokeWidth=2;rounded=0;" edge="1" parent="1">
          <mxGeometry width="50" height="50" relative="1" as="geometry">
            <mxPoint x="315" y="1360" as="sourcePoint" />
            <mxPoint x="225" y="1360" as="targetPoint" />
          </mxGeometry>
        </mxCell>
        <mxCell id="LefdrT6UlM4HtIoz6M8Q-28" value="&lt;div&gt;&lt;span style=&quot;white-space-collapse: collapse;&quot;&gt;&lt;span style=&quot;white-space-collapse: preserve;&quot;&gt;&#x9;&lt;/span&gt;return 0;&lt;/span&gt;&lt;/div&gt;&lt;div&gt;}&lt;/div&gt;" style="strokeWidth=2;html=1;shape=mxgraph.flowchart.annotation_1;align=left;pointerEvents=1;" vertex="1" parent="1">
          <mxGeometry x="315" y="1310" width="50" height="100" as="geometry" />
        </mxCell>
        <mxCell id="LefdrT6UlM4HtIoz6M8Q-47" style="edgeStyle=orthogonalEdgeStyle;rounded=0;orthogonalLoop=1;jettySize=auto;html=1;exitX=0.5;exitY=1;exitDx=0;exitDy=0;" edge="1" parent="1" source="LefdrT6UlM4HtIoz6M8Q-45" target="LefdrT6UlM4HtIoz6M8Q-46">
          <mxGeometry relative="1" as="geometry" />
        </mxCell>
        <mxCell id="LefdrT6UlM4HtIoz6M8Q-45" value="&lt;div&gt;int i = 2;&lt;/div&gt;&lt;div&gt;int count = 1;&lt;/div&gt;" style="rounded=0;whiteSpace=wrap;html=1;" vertex="1" parent="1">
          <mxGeometry x="180" y="150" width="120" height="60" as="geometry" />
        </mxCell>
        <mxCell id="LefdrT6UlM4HtIoz6M8Q-49" style="edgeStyle=orthogonalEdgeStyle;rounded=0;orthogonalLoop=1;jettySize=auto;html=1;exitX=0.5;exitY=1;exitDx=0;exitDy=0;entryX=0.5;entryY=0;entryDx=0;entryDy=0;" edge="1" parent="1" source="LefdrT6UlM4HtIoz6M8Q-46" target="LefdrT6UlM4HtIoz6M8Q-48">
          <mxGeometry relative="1" as="geometry" />
        </mxCell>
        <mxCell id="LefdrT6UlM4HtIoz6M8Q-46" value="cout &amp;lt;&amp;lt; &quot;Введите число: \n&quot;;" style="shape=parallelogram;perimeter=parallelogramPerimeter;whiteSpace=wrap;html=1;fixedSize=1;" vertex="1" parent="1">
          <mxGeometry x="180" y="250" width="120" height="60" as="geometry" />
        </mxCell>
        <mxCell id="LefdrT6UlM4HtIoz6M8Q-53" style="edgeStyle=orthogonalEdgeStyle;rounded=0;orthogonalLoop=1;jettySize=auto;html=1;exitX=0.5;exitY=1;exitDx=0;exitDy=0;entryX=0.5;entryY=0;entryDx=0;entryDy=0;" edge="1" parent="1" source="LefdrT6UlM4HtIoz6M8Q-48">
          <mxGeometry relative="1" as="geometry">
            <mxPoint x="240" y="450" as="targetPoint" />
          </mxGeometry>
        </mxCell>
        <mxCell id="LefdrT6UlM4HtIoz6M8Q-48" value="cin &amp;gt;&amp;gt; n;" style="shape=parallelogram;perimeter=parallelogramPerimeter;whiteSpace=wrap;html=1;fixedSize=1;" vertex="1" parent="1">
          <mxGeometry x="180" y="350" width="120" height="60" as="geometry" />
        </mxCell>
        <mxCell id="LefdrT6UlM4HtIoz6M8Q-67" style="edgeStyle=orthogonalEdgeStyle;rounded=0;orthogonalLoop=1;jettySize=auto;html=1;exitX=0.5;exitY=1;exitDx=0;exitDy=0;entryX=0;entryY=0.5;entryDx=0;entryDy=0;" edge="1" parent="1" source="LefdrT6UlM4HtIoz6M8Q-61">
          <mxGeometry relative="1" as="geometry">
            <mxPoint x="180" y="490" as="targetPoint" />
            <Array as="points">
              <mxPoint x="140" y="770" />
              <mxPoint x="60" y="770" />
              <mxPoint x="60" y="490" />
            </Array>
          </mxGeometry>
        </mxCell>
        <mxCell id="LefdrT6UlM4HtIoz6M8Q-80" style="edgeStyle=orthogonalEdgeStyle;rounded=0;orthogonalLoop=1;jettySize=auto;html=1;exitX=0.5;exitY=1;exitDx=0;exitDy=0;entryX=0.5;entryY=0;entryDx=0;entryDy=0;" edge="1" parent="1" source="LefdrT6UlM4HtIoz6M8Q-70" target="LefdrT6UlM4HtIoz6M8Q-71">
          <mxGeometry relative="1" as="geometry" />
        </mxCell>
        <mxCell id="LefdrT6UlM4HtIoz6M8Q-120" style="edgeStyle=orthogonalEdgeStyle;rounded=0;orthogonalLoop=1;jettySize=auto;html=1;exitX=1;exitY=0.5;exitDx=0;exitDy=0;" edge="1" parent="1" source="LefdrT6UlM4HtIoz6M8Q-70" target="LefdrT6UlM4HtIoz6M8Q-119">
          <mxGeometry relative="1" as="geometry">
            <Array as="points">
              <mxPoint x="410" y="580" />
              <mxPoint x="410" y="1150" />
              <mxPoint x="235" y="1150" />
            </Array>
          </mxGeometry>
        </mxCell>
        <mxCell id="LefdrT6UlM4HtIoz6M8Q-70" value="while (i &amp;lt;= n)" style="shape=hexagon;perimeter=hexagonPerimeter2;whiteSpace=wrap;html=1;fixedSize=1;" vertex="1" parent="1">
          <mxGeometry x="180" y="540" width="120" height="80" as="geometry" />
        </mxCell>
        <mxCell id="LefdrT6UlM4HtIoz6M8Q-79" style="edgeStyle=orthogonalEdgeStyle;rounded=0;orthogonalLoop=1;jettySize=auto;html=1;exitX=0.5;exitY=1;exitDx=0;exitDy=0;entryX=0.5;entryY=0;entryDx=0;entryDy=0;" edge="1" parent="1" source="LefdrT6UlM4HtIoz6M8Q-71" target="LefdrT6UlM4HtIoz6M8Q-72">
          <mxGeometry relative="1" as="geometry" />
        </mxCell>
        <mxCell id="LefdrT6UlM4HtIoz6M8Q-71" value="a = sin(n + i / n);" style="rounded=0;whiteSpace=wrap;html=1;" vertex="1" parent="1">
          <mxGeometry x="180" y="660" width="120" height="60" as="geometry" />
        </mxCell>
        <mxCell id="LefdrT6UlM4HtIoz6M8Q-75" style="edgeStyle=orthogonalEdgeStyle;rounded=0;orthogonalLoop=1;jettySize=auto;html=1;exitX=0;exitY=0.5;exitDx=0;exitDy=0;entryX=0.5;entryY=0;entryDx=0;entryDy=0;" edge="1" parent="1" source="LefdrT6UlM4HtIoz6M8Q-72" target="LefdrT6UlM4HtIoz6M8Q-73">
          <mxGeometry relative="1" as="geometry" />
        </mxCell>
        <mxCell id="LefdrT6UlM4HtIoz6M8Q-110" style="edgeStyle=orthogonalEdgeStyle;rounded=0;orthogonalLoop=1;jettySize=auto;html=1;exitX=1;exitY=0.5;exitDx=0;exitDy=0;entryX=0.5;entryY=0;entryDx=0;entryDy=0;" edge="1" parent="1" source="LefdrT6UlM4HtIoz6M8Q-72" target="LefdrT6UlM4HtIoz6M8Q-109">
          <mxGeometry relative="1" as="geometry" />
        </mxCell>
        <mxCell id="LefdrT6UlM4HtIoz6M8Q-72" value="if (a &amp;gt; max)" style="rhombus;whiteSpace=wrap;html=1;" vertex="1" parent="1">
          <mxGeometry x="200" y="750" width="80" height="80" as="geometry" />
        </mxCell>
        <mxCell id="LefdrT6UlM4HtIoz6M8Q-104" style="edgeStyle=orthogonalEdgeStyle;rounded=0;orthogonalLoop=1;jettySize=auto;html=1;exitX=0.5;exitY=1;exitDx=0;exitDy=0;" edge="1" parent="1" source="LefdrT6UlM4HtIoz6M8Q-73" target="LefdrT6UlM4HtIoz6M8Q-102">
          <mxGeometry relative="1" as="geometry">
            <Array as="points">
              <mxPoint x="140" y="1010" />
              <mxPoint x="235" y="1010" />
            </Array>
          </mxGeometry>
        </mxCell>
        <mxCell id="LefdrT6UlM4HtIoz6M8Q-73" value="&lt;div&gt;max = a;&lt;/div&gt;&lt;div&gt;count = 1;&lt;/div&gt;" style="rounded=0;whiteSpace=wrap;html=1;" vertex="1" parent="1">
          <mxGeometry x="80" y="830" width="120" height="60" as="geometry" />
        </mxCell>
        <mxCell id="LefdrT6UlM4HtIoz6M8Q-76" value="1" style="text;html=1;align=center;verticalAlign=middle;resizable=0;points=[];autosize=1;strokeColor=none;fillColor=none;" vertex="1" parent="1">
          <mxGeometry x="135" y="768" width="30" height="30" as="geometry" />
        </mxCell>
        <mxCell id="LefdrT6UlM4HtIoz6M8Q-78" value="0" style="text;html=1;align=center;verticalAlign=middle;resizable=0;points=[];autosize=1;strokeColor=none;fillColor=none;" vertex="1" parent="1">
          <mxGeometry x="280" y="768" width="30" height="30" as="geometry" />
        </mxCell>
        <mxCell id="LefdrT6UlM4HtIoz6M8Q-105" style="edgeStyle=orthogonalEdgeStyle;rounded=0;orthogonalLoop=1;jettySize=auto;html=1;exitX=0;exitY=0.5;exitDx=0;exitDy=0;entryX=0;entryY=0.5;entryDx=0;entryDy=0;" edge="1" parent="1" source="LefdrT6UlM4HtIoz6M8Q-102" target="LefdrT6UlM4HtIoz6M8Q-70">
          <mxGeometry relative="1" as="geometry">
            <Array as="points">
              <mxPoint x="235" y="1080" />
              <mxPoint x="235" y="1140" />
              <mxPoint x="50" y="1140" />
              <mxPoint x="50" y="580" />
            </Array>
          </mxGeometry>
        </mxCell>
        <mxCell id="LefdrT6UlM4HtIoz6M8Q-102" value="i++;" style="rounded=0;whiteSpace=wrap;html=1;" vertex="1" parent="1">
          <mxGeometry x="175" y="1050" width="120" height="60" as="geometry" />
        </mxCell>
        <mxCell id="LefdrT6UlM4HtIoz6M8Q-107" style="edgeStyle=orthogonalEdgeStyle;rounded=0;orthogonalLoop=1;jettySize=auto;html=1;exitX=0.5;exitY=1;exitDx=0;exitDy=0;entryX=0.5;entryY=0;entryDx=0;entryDy=0;" edge="1" parent="1" source="LefdrT6UlM4HtIoz6M8Q-106" target="LefdrT6UlM4HtIoz6M8Q-70">
          <mxGeometry relative="1" as="geometry" />
        </mxCell>
        <mxCell id="LefdrT6UlM4HtIoz6M8Q-106" value="max = sin(n + 1 / n);" style="rounded=0;whiteSpace=wrap;html=1;" vertex="1" parent="1">
          <mxGeometry x="180" y="450" width="120" height="60" as="geometry" />
        </mxCell>
        <mxCell id="LefdrT6UlM4HtIoz6M8Q-108" value="cout &amp;lt;&amp;lt; &quot;Число элементов с этим значением: &quot; &amp;lt;&amp;lt; count &amp;lt;&amp;lt; endl;" style="shape=parallelogram;perimeter=parallelogramPerimeter;whiteSpace=wrap;html=1;fixedSize=1;" vertex="1" parent="1">
          <mxGeometry x="165" y="1270" width="120" height="60" as="geometry" />
        </mxCell>
        <mxCell id="LefdrT6UlM4HtIoz6M8Q-113" style="edgeStyle=orthogonalEdgeStyle;rounded=0;orthogonalLoop=1;jettySize=auto;html=1;exitX=0;exitY=0.5;exitDx=0;exitDy=0;entryX=0.5;entryY=0;entryDx=0;entryDy=0;" edge="1" parent="1" source="LefdrT6UlM4HtIoz6M8Q-109" target="LefdrT6UlM4HtIoz6M8Q-111">
          <mxGeometry relative="1" as="geometry" />
        </mxCell>
        <mxCell id="LefdrT6UlM4HtIoz6M8Q-117" style="edgeStyle=orthogonalEdgeStyle;rounded=0;orthogonalLoop=1;jettySize=auto;html=1;exitX=1;exitY=0.5;exitDx=0;exitDy=0;" edge="1" parent="1" source="LefdrT6UlM4HtIoz6M8Q-109">
          <mxGeometry relative="1" as="geometry">
            <mxPoint x="260" y="1010" as="targetPoint" />
            <Array as="points">
              <mxPoint x="385" y="850" />
              <mxPoint x="385" y="1010" />
            </Array>
          </mxGeometry>
        </mxCell>
        <mxCell id="LefdrT6UlM4HtIoz6M8Q-109" value="if (a == max)" style="rhombus;whiteSpace=wrap;html=1;" vertex="1" parent="1">
          <mxGeometry x="285" y="810" width="80" height="80" as="geometry" />
        </mxCell>
        <mxCell id="LefdrT6UlM4HtIoz6M8Q-115" style="edgeStyle=orthogonalEdgeStyle;rounded=0;orthogonalLoop=1;jettySize=auto;html=1;exitX=0.5;exitY=1;exitDx=0;exitDy=0;" edge="1" parent="1" source="LefdrT6UlM4HtIoz6M8Q-111">
          <mxGeometry relative="1" as="geometry">
            <mxPoint x="240" y="1050" as="targetPoint" />
          </mxGeometry>
        </mxCell>
        <mxCell id="LefdrT6UlM4HtIoz6M8Q-111" value="count++;" style="rounded=0;whiteSpace=wrap;html=1;" vertex="1" parent="1">
          <mxGeometry x="200" y="910" width="120" height="60" as="geometry" />
        </mxCell>
        <mxCell id="LefdrT6UlM4HtIoz6M8Q-114" value="1" style="text;html=1;align=center;verticalAlign=middle;resizable=0;points=[];autosize=1;strokeColor=none;fillColor=none;" vertex="1" parent="1">
          <mxGeometry x="245" y="828" width="30" height="30" as="geometry" />
        </mxCell>
        <mxCell id="LefdrT6UlM4HtIoz6M8Q-118" value="0" style="text;html=1;align=center;verticalAlign=middle;resizable=0;points=[];autosize=1;strokeColor=none;fillColor=none;" vertex="1" parent="1">
          <mxGeometry x="365" y="828" width="30" height="30" as="geometry" />
        </mxCell>
        <mxCell id="LefdrT6UlM4HtIoz6M8Q-119" value="cout &amp;lt;&amp;lt; &quot;Максимальный элемент: &quot; &amp;lt;&amp;lt; max &amp;lt;&amp;lt; endl;" style="shape=parallelogram;perimeter=parallelogramPerimeter;whiteSpace=wrap;html=1;fixedSize=1;" vertex="1" parent="1">
          <mxGeometry x="175" y="1180" width="120" height="60" as="geometry" />
        </mxCell>
        <mxCell id="LefdrT6UlM4HtIoz6M8Q-121" style="edgeStyle=orthogonalEdgeStyle;rounded=0;orthogonalLoop=1;jettySize=auto;html=1;exitX=0.5;exitY=1;exitDx=0;exitDy=0;entryX=0.567;entryY=-0.017;entryDx=0;entryDy=0;entryPerimeter=0;" edge="1" parent="1" source="LefdrT6UlM4HtIoz6M8Q-119" target="LefdrT6UlM4HtIoz6M8Q-108">
          <mxGeometry relative="1" as="geometry" />
        </mxCell>
      </root>
    </mxGraphModel>
  </diagram>
</mxfile>
